HIERARCHY
ROOT joint_Root
{
	OFFSET 0.0 0.0 0.0
	CHANNELS 6 Xposition Yposition Zposition Zrotation Xrotation Yrotation 
	JOINT Hips
	{
		OFFSET 4.5925 91.4895 -427.239
		CHANNELS 6 Xposition Yposition Zposition Zrotation Xrotation Yrotation 
		JOINT Spine
		{
			OFFSET 15.7357 0.0 0.0
			CHANNELS 6 Xposition Yposition Zposition Zrotation Xrotation Yrotation 
			JOINT Chest
			{
				OFFSET 8.98455 -0.406207 0.0
				CHANNELS 6 Xposition Yposition Zposition Zrotation Xrotation Yrotation 
				JOINT Neck
				{
					OFFSET 16.3773 0.0 0.0
					CHANNELS 6 Xposition Yposition Zposition Zrotation Xrotation Yrotation 
					JOINT Head
					{
						OFFSET 6.45672 0.0 0.0
						CHANNELS 6 Xposition Yposition Zposition Zrotation Xrotation Yrotation 
						End Site
						{
							OFFSET 0.0 0.0 0.0
						}
					}
				}
				JOINT Shoulder_L
				{
					OFFSET 12.9942 -0.242716 4.98039
					CHANNELS 6 Xposition Yposition Zposition Zrotation Xrotation Yrotation 
					JOINT UpperArm_L
					{
						OFFSET 5.34809 0.0 0.0
						CHANNELS 6 Xposition Yposition Zposition Zrotation Xrotation Yrotation 
						JOINT LowerArm_L
						{
							OFFSET 24.3286 1.87007e-05 0.0
							CHANNELS 6 Xposition Yposition Zposition Zrotation Xrotation Yrotation 
							JOINT Hand_L
							{
								OFFSET 22.2916 0.0 0.0
								CHANNELS 6 Xposition Yposition Zposition Zrotation Xrotation Yrotation 
								End Site
								{
									OFFSET 0.0 0.0 0.0
								}
							}
						}
					}
				}
				JOINT Shoulder_R
				{
					OFFSET 12.9945 -0.242716 -4.98039
					CHANNELS 6 Xposition Yposition Zposition Zrotation Xrotation Yrotation 
					JOINT UpperArm_R
					{
						OFFSET -5.34813 0.0 0.0
						CHANNELS 6 Xposition Yposition Zposition Zrotation Xrotation Yrotation 
						JOINT LowerArm_R
						{
							OFFSET -24.3289 0.000322201 0.0
							CHANNELS 6 Xposition Yposition Zposition Zrotation Xrotation Yrotation 
							JOINT Hand_R
							{
								OFFSET -22.2915 -0.000108084 0.0
								CHANNELS 6 Xposition Yposition Zposition Zrotation Xrotation Yrotation 
								End Site
								{
									OFFSET 0.0 0.0 0.0
								}
							}
						}
					}
				}
			}
		}
		JOINT UpperLeg_L
		{
			OFFSET -2.19248 -6.46944 0.0
			CHANNELS 6 Xposition Yposition Zposition Zrotation Xrotation Yrotation 
			JOINT LowerLeg_L
			{
				OFFSET 39.0811 0.0 -1.23785e-05
				CHANNELS 6 Xposition Yposition Zposition Zrotation Xrotation Yrotation 
				JOINT Foot_L
				{
					OFFSET 40.9854 0.0 -1.26872e-05
					CHANNELS 6 Xposition Yposition Zposition Zrotation Xrotation Yrotation 
					JOINT Toes_L
					{
						OFFSET 11.7543 0.0 0.0
						CHANNELS 6 Xposition Yposition Zposition Zrotation Xrotation Yrotation 
						End Site
						{
							OFFSET 0.0 0.0 0.0
						}
					}
				}
			}
		}
		JOINT UpperLeg_R
		{
			OFFSET -2.19251 6.46944 0.0
			CHANNELS 6 Xposition Yposition Zposition Zrotation Xrotation Yrotation 
			JOINT LowerLeg_R
			{
				OFFSET -39.0811 -0.00228153 -0.0401928
				CHANNELS 6 Xposition Yposition Zposition Zrotation Xrotation Yrotation 
				JOINT Foot_R
				{
					OFFSET -40.9854 0.0 0.0
					CHANNELS 6 Xposition Yposition Zposition Zrotation Xrotation Yrotation 
					JOINT Toes_R
					{
						OFFSET -11.7543 0.0 0.0
						CHANNELS 6 Xposition Yposition Zposition Zrotation Xrotation Yrotation 
						End Site
						{
							OFFSET 0.0 0.0 0.0
						}
					}
				}
			}
		}
	}
}
MOTION
Frames:	6
Frame Time:	0.0333333
0.000000 0.000000 0.000000 0.000000 0.000000 -0.000000 -7.228890 83.317600 -33.459000 -93.443100 7.196510 178.300000 15.735700 0.000005 -0.000001 93.068100 84.636200 -94.330300 8.984550 -0.406207 -0.000000 2.954490 0.626577 -2.537980 16.377300 -0.000001 -0.000001 -5.480550 -3.606220 1.458710 6.456720 -0.000001 -0.000000 -12.309700 -3.182500 -1.979360 12.994200 -0.242716 4.980390 -91.555600 4.249480 -69.873000 5.348090 -0.000007 -0.000001 -52.635000 26.612300 3.731130 24.328600 0.000019 0.000005 49.582000 -12.082900 -100.108000 22.291600 -0.000001 0.000005 -1.036040 5.435830 -4.144220 12.994500 -0.242716 -4.980390 87.713400 9.591930 -76.524400 -5.348130 -0.000001 -0.000004 -51.522600 40.121300 -14.928700 -24.328900 0.000322 -0.000009 2.224740 -0.535179 -103.527000 -22.291500 -0.000108 -0.000004 18.453300 5.528190 -7.715130 -2.192480 -6.469440 -0.000000 173.921000 -2.248770 -26.290100 39.081100 -0.000007 -0.000012 -0.490626 0.311373 57.600100 40.985400 -0.000006 -0.000013 3.555190 -1.385450 -83.866400 11.754300 -0.000000 0.000003 -0.001291 -0.008764 -16.883400 -2.192510 6.469440 -0.000001 172.903000 3.872190 175.464000 -39.081100 -0.002282 -0.040193 0.032665 -0.005180 80.141800 -40.985400 0.000008 0.000006 8.547350 -5.743340 -39.475100 -11.754300 -0.000006 -0.000006 -0.020333 -0.169124 -23.483500
0.000000 0.000000 0.000000 0.000000 0.000000 -0.000000 -7.250320 83.428100 -40.382600 -92.621900 8.097690 177.394000 15.735700 0.000005 -0.000001 93.294800 84.810500 -94.382200 8.984550 -0.406207 -0.000000 2.603000 0.644976 -2.187310 16.377300 -0.000001 -0.000001 -5.263100 -4.322000 0.898605 6.456720 -0.000001 -0.000000 -11.200400 -4.935590 -0.726654 12.994200 -0.242716 4.980390 -91.692800 4.636720 -69.918000 5.348090 -0.000007 -0.000001 -54.382900 25.882500 -6.936200 24.328600 0.000019 0.000005 56.521000 -9.959140 -96.525200 22.291600 -0.000001 0.000005 -6.595250 5.447450 -4.545030 12.994500 -0.242716 -4.980390 87.661400 9.492400 -76.091500 -5.348130 -0.000001 -0.000004 -60.075400 36.304600 -4.410260 -24.328900 0.000322 -0.000009 0.901388 -0.188243 -101.798000 -22.291500 -0.000108 -0.000004 18.801700 5.515430 -7.167990 -2.192480 -6.469440 -0.000000 174.091000 -4.408800 -19.990100 39.081100 -0.000007 -0.000012 -0.181793 0.129657 54.504000 40.985400 -0.000006 -0.000013 6.133050 -1.670520 -88.066600 11.754300 -0.000000 0.000003 -1.029710 -1.513290 -15.881800 -2.192510 6.469440 -0.000001 174.521000 2.806930 166.210000 -39.081100 -0.002282 -0.040193 -0.073416 0.003765 87.128600 -40.985400 0.000008 0.000006 10.815100 -5.247850 -41.696000 -11.754300 -0.000006 -0.000006 -0.019029 -0.161850 -23.183900
0.000000 0.000000 0.000000 0.000000 0.000000 -0.000000 -6.991600 84.868500 -47.577800 -91.631900 7.385700 176.906000 15.735700 0.000005 -0.000001 81.680100 84.773600 -82.199200 8.984550 -0.406207 -0.000000 2.570970 -1.487710 -1.003740 16.377300 -0.000001 -0.000001 -5.948380 -4.587280 0.306408 6.456720 -0.000001 -0.000000 -10.526700 -4.133590 -1.310240 12.994200 -0.242716 4.980390 -91.095700 3.305030 -71.647600 5.348090 -0.000007 -0.000001 -62.860300 23.263300 -9.423550 24.328600 0.000019 0.000005 54.351200 -10.874800 -97.706200 22.291600 -0.000001 0.000005 -4.415230 5.369530 -1.978770 12.994500 -0.242716 -4.980390 87.740000 8.626720 -75.258800 -5.348130 -0.000001 -0.000004 -64.785000 35.936000 2.678570 -24.328900 0.000322 -0.000009 -9.568970 2.028940 -101.859000 -22.291500 -0.000108 -0.000004 18.107900 5.516650 -7.219940 -2.192480 -6.469440 -0.000000 175.139000 -4.898260 -12.269800 39.081100 -0.000007 -0.000012 0.074254 -0.066812 48.018500 40.985400 -0.000006 -0.000013 7.828800 -0.608882 -84.502200 11.754300 -0.000000 0.000003 -1.616010 -2.211720 -20.508200 -2.192510 6.469440 -0.000001 177.077000 2.500600 159.439000 -39.081100 -0.002282 -0.040193 -0.122529 0.005138 87.623900 -40.985400 0.000008 0.000006 10.760300 -5.749170 -46.671300 -11.754300 -0.000006 -0.000006 -0.017919 -0.155479 -22.921700
0.000000 0.000000 0.000000 0.000000 0.000000 -0.000000 -6.407720 87.351300 -54.546200 -90.562600 5.394380 175.061000 15.735700 0.000005 -0.000001 62.868900 84.543600 -62.485600 8.984550 -0.406207 -0.000000 1.970180 -4.992690 0.852188 16.377300 -0.000001 -0.000001 -7.094430 -4.686000 0.026402 6.456720 -0.000001 -0.000000 -11.779900 -2.010560 -2.875850 12.994200 -0.242716 4.980390 -90.460900 1.558590 -73.526300 5.348090 -0.000007 -0.000001 -70.991000 22.210400 -9.801410 24.328600 0.000019 0.000005 46.985200 -12.313500 -101.254000 22.291600 -0.000001 0.000005 2.816440 5.276540 0.711510 12.994500 -0.242716 -4.980390 87.753300 7.825120 -73.925500 -5.348130 -0.000001 -0.000004 -66.226100 37.881500 6.861120 -24.328900 0.000322 -0.000009 -12.909300 2.922550 -102.541000 -22.291500 -0.000108 -0.000004 17.653500 5.530830 -7.831930 -2.192480 -6.469440 -0.000000 177.236000 -5.098680 -7.084440 39.081100 -0.000007 -0.000012 0.048733 -0.054709 41.692600 40.985400 -0.000006 -0.000013 7.789960 3.335500 -75.672900 11.754300 -0.000000 0.000003 -0.021790 -0.177019 -23.812800 -2.192510 6.469440 -0.000001 -179.612000 2.839520 153.132000 -39.081100 -0.002282 -0.040193 -0.122485 0.018055 81.796500 -40.985400 0.000008 0.000006 9.974300 -7.926890 -50.799700 -11.754300 -0.000006 -0.000006 -0.016127 -0.144804 -22.482900
0.000000 0.000000 0.000000 0.000000 0.000000 -0.000000 -5.636530 90.162500 -61.789600 -89.565700 2.695480 173.233000 15.735700 0.000005 -0.000001 48.003300 83.765800 -46.630000 8.984550 -0.406207 -0.000000 1.621380 -8.411710 2.867130 16.377300 -0.000001 -0.000001 -8.211030 -5.101940 0.113160 6.456720 -0.000001 -0.000000 -13.828300 -0.612157 -3.356100 12.994200 -0.242716 4.980390 -89.893200 -0.391504 -74.733500 5.348090 -0.000007 -0.000001 -74.513300 25.295600 -12.190800 24.328600 0.000019 0.000005 36.550900 -11.647700 -105.235000 22.291600 -0.000001 0.000005 9.943860 5.223370 2.125450 12.994500 -0.242716 -4.980390 87.771900 7.042640 -72.394100 -5.348130 -0.000001 -0.000004 -66.680200 39.456500 10.006600 -24.328900 0.000322 -0.000009 -10.512800 2.428920 -102.864000 -22.291500 -0.000108 -0.000004 16.313000 5.533130 -7.932960 -2.192480 -6.469440 -0.000000 -179.657000 -7.013570 -3.176970 39.081100 -0.000007 -0.000012 0.029875 -0.041605 35.679300 40.985400 -0.000006 -0.000013 6.783130 9.869880 -62.009900 11.754300 -0.000000 0.000003 -0.110184 -0.469161 -36.211000 -2.192510 6.469440 -0.000001 -176.621000 3.705120 149.594000 -39.081100 -0.002282 -0.040193 -0.073611 0.027564 70.237800 -40.985400 0.000008 0.000006 9.546890 -9.492020 -54.349100 -11.754300 -0.000006 -0.000006 -0.018422 -0.158387 -23.041400
0.000000 0.000000 0.000000 0.000000 0.000000 -0.000000 -4.864400 92.464600 -69.050300 -89.516000 0.914982 171.903000 15.735700 0.000005 -0.000001 39.804300 83.011800 -37.858000 8.984550 -0.406207 -0.000000 1.397220 -10.840400 4.030710 16.377300 -0.000001 -0.000001 -8.865010 -5.712920 0.611736 6.456720 -0.000001 -0.000000 -15.541200 -0.222542 -2.292980 12.994200 -0.242716 4.980390 -89.466400 -1.966550 -74.816100 5.348090 -0.000007 -0.000001 -72.412800 30.926800 -16.903800 24.328600 0.000019 0.000005 27.237400 -10.321900 -109.193000 22.291600 -0.000001 0.000005 12.329900 5.246390 1.527910 12.994500 -0.242716 -4.980390 87.935200 6.065330 -71.159400 -5.348130 -0.000001 -0.000004 -67.314500 40.034700 13.121800 -24.328900 0.000322 -0.000009 -9.443910 2.163460 -102.786000 -22.291500 -0.000108 -0.000004 14.380300 5.518910 -7.314480 -2.192480 -6.469440 -0.000000 -176.866000 -10.616200 -0.093333 39.081100 -0.000007 -0.000012 0.036975 -0.062175 30.739100 40.985400 -0.000006 -0.000013 3.588550 16.935900 -47.123400 11.754300 -0.000000 0.000003 -0.138086 -0.530663 -38.949300 -2.192510 6.469440 -0.000001 -175.401000 4.192950 148.366000 -39.081100 -0.002282 -0.040193 -0.019742 0.016060 55.037700 -40.985400 0.000008 0.000006 8.527350 -8.391370 -56.811200 -11.754300 -0.000006 -0.000006 -0.019236 -0.163021 -23.232100
